<svg width="23" height="22" viewBox="0 0 23 22" fill="none" xmlns="http://www.w3.org/2000/svg">
<path d="M20.8199 0.588924C20.4381 0.376071 20.0181 0.24071 19.584 0.190581C19.1499 0.140453 18.7102 0.17654 18.2901 0.29678C17.8699 0.41702 17.4775 0.619053 17.1354 0.891327C16.7932 1.1636 16.508 1.50077 16.296 1.88356L10.1205 13.0171L6.58623 9.47644C6.27938 9.15816 5.91233 8.90429 5.5065 8.72964C5.10066 8.555 4.66417 8.46307 4.22249 8.45922C3.78082 8.45538 3.3428 8.53969 2.93399 8.70725C2.52519 8.87481 2.15379 9.12225 1.84147 9.43514C1.52914 9.74802 1.28215 10.1201 1.11489 10.5296C0.947639 10.9392 0.863475 11.378 0.867313 11.8205C0.871151 12.2629 0.962914 12.7002 1.13725 13.1068C1.31158 13.5133 1.56499 13.8811 1.8827 14.1885L8.5355 20.8533C9.16419 21.4848 10.0124 21.8313 10.8873 21.8313L11.348 21.798C11.8578 21.7265 12.3442 21.5375 12.7687 21.2458C13.1933 20.9541 13.5444 20.5676 13.7945 20.1168L22.1105 5.12099C22.3229 4.73852 22.4579 4.31789 22.5079 3.88314C22.558 3.44838 22.5221 3.00801 22.4022 2.58716C22.2824 2.16631 22.0809 1.77324 21.8094 1.43038C21.538 1.08752 21.2017 0.801594 20.8199 0.588924Z" fill="#36A549"/>
</svg>
