<svg width="65" height="80" viewBox="0 0 65 80" fill="none" xmlns="http://www.w3.org/2000/svg">
<path d="M32.9961 8.00024C39.6121 8.00024 44.9961 13.3842 44.9961 20.0002H52.9961C52.9961 8.97224 44.0241 0.000244141 32.9961 0.000244141C21.9681 0.000244141 12.9961 8.97224 12.9961 20.0002V28.0002H8.99609C4.58409 28.0002 0.996094 31.5882 0.996094 36.0002V72.0002C0.996094 76.4122 4.58409 80.0002 8.99609 80.0002H56.9961C61.4081 80.0002 64.9961 76.4122 64.9961 72.0002V36.0002C64.9961 31.5882 61.4081 28.0002 56.9961 28.0002H20.9961V20.0002C20.9961 13.3842 26.3801 8.00024 32.9961 8.00024ZM57.0041 72.0002H36.9961V62.8882C39.3761 61.5002 40.9961 58.9482 40.9961 56.0002C40.9961 51.5882 37.4081 48.0002 32.9961 48.0002C28.5841 48.0002 24.9961 51.5882 24.9961 56.0002C24.9961 58.9442 26.6161 61.5002 28.9961 62.8882V72.0002H8.99609V36.0002H56.9961L57.0041 72.0002Z" fill="#2A2B2E" fill-opacity="0.8"/>
</svg>
