<svg width="90" height="90" viewBox="0 0 90 90" fill="none" xmlns="http://www.w3.org/2000/svg">
<path d="M44.9992 0.555573C36.2089 0.555573 27.616 3.16219 20.3071 8.04581C12.9983 12.9294 7.30173 19.8707 3.93784 27.9919C0.573944 36.113 -0.306204 45.0493 1.4087 53.6707C3.12359 62.2921 7.35652 70.2113 13.5722 76.427C19.7879 82.6427 27.7071 86.8756 36.3285 88.5905C44.9499 90.3054 53.8861 89.4252 62.0073 86.0613C70.1285 82.6974 77.0697 77.0009 81.9534 69.692C86.837 62.3832 89.4436 53.7903 89.4436 45C89.4436 33.2126 84.7611 21.908 76.4261 13.573C68.0912 5.2381 56.7866 0.555573 44.9992 0.555573ZM74.0269 30.0833L37.5269 66.5556L15.9714 45C15.2347 44.2633 14.8208 43.2641 14.8208 42.2222C14.8208 41.1804 15.2347 40.1812 15.9714 39.4445C16.7081 38.7077 17.7073 38.2939 18.7492 38.2939C19.791 38.2939 20.7902 38.7077 21.5269 39.4445L37.5825 55.5L68.5269 24.5833C68.8917 24.2186 69.3248 23.9292 69.8014 23.7318C70.278 23.5344 70.7888 23.4328 71.3047 23.4328C71.8206 23.4328 72.3314 23.5344 72.808 23.7318C73.2846 23.9292 73.7177 24.2186 74.0825 24.5833C74.4473 24.9481 74.7366 25.3812 74.9341 25.8578C75.1315 26.3344 75.2331 26.8452 75.2331 27.3611C75.2331 27.877 75.1315 28.3878 74.9341 28.8645C74.7366 29.3411 74.4473 29.7741 74.0825 30.1389L74.0269 30.0833Z" fill="#2A2B2E" fill-opacity="0.8"/>
</svg>
