<svg width="45" height="45" viewBox="0 0 45 45" fill="none" xmlns="http://www.w3.org/2000/svg">
<circle r="17.5" transform="matrix(1 2.43937e-05 2.45253e-05 1 22.5004 21.5004)" fill="#7B7B7B" fill-opacity="0.3"/>
<circle r="17.5" transform="matrix(1 2.43937e-05 2.45253e-05 1 22.5004 21.5004)" />
<path d="M31.875 20.4165C31.875 27.7082 22.5 33.9582 22.5 33.9582C22.5 33.9582 13.125 27.7082 13.125 20.4165C13.125 17.9301 14.1127 15.5455 15.8709 13.7874C17.629 12.0292 20.0136 11.0415 22.5 11.0415C24.9864 11.0415 27.371 12.0292 29.1291 13.7874C30.8873 15.5455 31.875 17.9301 31.875 20.4165Z" stroke="#FFFEFE" stroke-width="2" stroke-linecap="round" stroke-linejoin="round"/>
<path d="M22.5 23.5415C24.2259 23.5415 25.625 22.1424 25.625 20.4165C25.625 18.6906 24.2259 17.2915 22.5 17.2915C20.7741 17.2915 19.375 18.6906 19.375 20.4165C19.375 22.1424 20.7741 23.5415 22.5 23.5415Z" stroke="#FFFEFE" stroke-width="2" stroke-linecap="round" stroke-linejoin="round"/>
</svg>
