<svg width="45" height="45" viewBox="0 0 45 45" fill="none" xmlns="http://www.w3.org/2000/svg">
<circle cx="22.5" cy="22.5" r="17.5" fill="#7B7B7B" fill-opacity="0.3"/>
<circle cx="22.5" cy="22.5" r="17.5" />
<path d="M33.0004 26.9201V29.9201C33.0016 30.1986 32.9445 30.4743 32.8329 30.7294C32.7214 30.9846 32.5577 31.2137 32.3525 31.402C32.1473 31.5902 31.905 31.7336 31.6412 31.8228C31.3773 31.912 31.0978 31.9452 30.8204 31.9201C27.7433 31.5857 24.7874 30.5342 22.1904 28.8501C19.7742 27.3148 17.7258 25.2663 16.1904 22.8501C14.5004 20.2413 13.4487 17.2711 13.1204 14.1801C13.0954 13.9036 13.1283 13.6249 13.2169 13.3617C13.3055 13.0986 13.448 12.8568 13.6352 12.6517C13.8224 12.4466 14.0502 12.2828 14.3042 12.1706C14.5582 12.0584 14.8328 12.0004 15.1104 12.0001H18.1104C18.5957 11.9953 19.0662 12.1672 19.4342 12.4836C19.8022 12.8001 20.0425 13.2395 20.1104 13.7201C20.237 14.6802 20.4719 15.6228 20.8104 16.5301C20.945 16.888 20.9741 17.277 20.8943 17.651C20.8146 18.0249 20.6293 18.3682 20.3604 18.6401L19.0904 19.9101C20.514 22.4136 22.5869 24.4865 25.0904 25.9101L26.3604 24.6401C26.6323 24.3712 26.9756 24.1859 27.3495 24.1062C27.7235 24.0264 28.1125 24.0556 28.4704 24.1901C29.3777 24.5286 30.3204 24.7635 31.2804 24.8901C31.7662 24.9586 32.2098 25.2033 32.527 25.5776C32.8441 25.9519 33.0126 26.4297 33.0004 26.9201Z" stroke="white" stroke-width="2" stroke-linecap="round" stroke-linejoin="round"/>
</svg>
