<?xml version="1.0" standalone="no"?>
<!DOCTYPE svg PUBLIC "-//W3C//DTD SVG 20010904//EN"
 "http://www.w3.org/TR/2001/REC-SVG-20010904/DTD/svg10.dtd">
<svg version="1.0" xmlns="http://www.w3.org/2000/svg"
 width="1673.000000pt" height="1782.000000pt" viewBox="0 0 1673.000000 1782.000000"
 preserveAspectRatio="xMidYMid meet">

<g transform="translate(0.000000,1782.000000) scale(0.100000,-0.100000)"
fill="#000000" stroke="none">
<path d="M9100 15130 c-28 -28 -27 -84 2 -104 33 -23 103 -21 128 4 28 28 27
84 -2 104 -33 23 -103 21 -128 -4z"/>
<path d="M7160 15113 c-83 -30 -77 -143 8 -143 41 0 95 29 111 59 12 22 -1 70
-22 83 -14 9 -74 9 -97 1z"/>
<path d="M9363 15090 c-17 -15 -23 -32 -23 -61 0 -37 3 -41 37 -55 68 -29 133
3 133 67 0 36 -31 60 -82 66 -34 4 -48 0 -65 -17z"/>
<path d="M8215 15013 c-27 -1 -74 -5 -102 -9 -51 -5 -53 -7 -53 -36 0 -21 6
-31 20 -35 11 -3 20 -8 20 -11 0 -8 -81 -112 -152 -195 -67 -79 -64 -82 -72
85 l-5 107 27 3 c22 2 28 9 30 36 l3 32 -73 -1 c-40 -1 -107 -4 -148 -8 l-75
-6 0 -30 c0 -27 3 -30 37 -33 l36 -3 6 -67 c11 -115 26 -364 26 -429 l0 -62
-32 -3 c-29 -3 -33 -6 -33 -33 l0 -30 105 3 c58 1 124 5 148 8 42 5 43 7 40
37 -2 27 -7 32 -28 32 -32 0 -38 15 -39 94 -1 58 2 68 35 113 20 27 40 46 44
41 4 -4 38 -62 76 -128 98 -174 100 -175 200 -175 62 0 87 4 98 16 26 26 18
56 -19 68 -32 9 -105 90 -193 213 l-81 111 95 109 c56 63 107 112 124 118 39
14 42 18 34 49 -4 19 -12 26 -28 24 -11 -1 -43 -3 -71 -5z"/>
<path d="M8930 14959 c0 -22 5 -32 20 -36 26 -7 26 -15 -11 -234 -37 -219 -40
-302 -13 -348 24 -40 97 -76 187 -92 133 -22 235 9 285 89 39 61 47 91 85 307
l32 180 29 -3 c16 -2 32 2 37 10 10 15 12 58 3 58 -4 0 -60 9 -126 20 -65 11
-123 18 -128 15 -6 -4 -10 -19 -10 -36 0 -21 5 -29 18 -29 42 -1 42 -8 7 -217
-34 -205 -56 -272 -94 -293 -31 -16 -93 -12 -128 10 -63 38 -64 100 -4 430 17
95 17 95 48 98 34 3 52 38 30 58 -12 11 -193 44 -242 44 -21 0 -25 -4 -25 -31z"/>
<path d="M7206 14895 c-66 -14 -124 -29 -129 -34 -7 -7 -7 -19 1 -36 11 -23
16 -25 46 -20 29 6 34 4 39 -17 10 -41 97 -502 97 -515 0 -7 -9 -13 -19 -13
-47 0 -62 -21 -41 -59 9 -17 16 -17 150 9 78 15 146 32 152 38 9 9 9 18 0 36
-10 21 -16 24 -46 19 l-34 -5 -11 53 c-45 220 -90 484 -84 490 5 4 19 9 33 11
20 2 25 9 25 33 0 26 -4 30 -30 32 -16 1 -84 -9 -149 -22z"/>
<path d="M9843 14823 c-22 -8 -16 -61 7 -68 11 -3 20 -13 20 -22 0 -8 -37
-127 -82 -264 l-82 -249 -38 6 c-34 6 -38 4 -44 -21 -3 -14 -3 -30 2 -35 11
-9 206 -70 227 -70 15 0 27 20 27 46 0 7 -11 16 -25 20 -14 3 -25 9 -25 12 0
3 28 91 62 196 l61 191 14 -109 c14 -116 42 -262 70 -366 l18 -65 73 -25 c54
-19 76 -22 90 -14 11 7 50 110 110 293 l93 283 34 -6 c27 -5 36 -3 44 13 22
40 13 47 -109 84 -67 21 -125 35 -130 32 -15 -9 -12 -65 3 -65 41 -1 39 -14
-23 -206 -33 -104 -64 -196 -67 -204 -3 -8 -12 30 -18 86 -7 55 -27 182 -45
281 l-33 180 -71 23 c-123 40 -151 47 -163 43z"/>
<path d="M6675 14764 c-55 -20 -104 -40 -109 -45 -6 -5 -5 -19 2 -34 11 -23
17 -26 42 -20 28 6 32 4 46 -31 23 -55 124 -345 124 -356 0 -5 -26 19 -57 53
-32 34 -123 121 -203 194 l-145 132 -70 -23 c-143 -48 -155 -54 -155 -78 0
-32 18 -46 46 -36 21 8 25 5 45 -48 34 -92 159 -453 159 -462 0 -4 -13 -13
-30 -19 -33 -11 -37 -27 -16 -57 14 -19 16 -18 98 10 134 46 148 53 148 74 0
27 -24 44 -52 37 -22 -6 -26 2 -86 172 -34 98 -62 181 -62 184 0 3 44 -38 98
-91 101 -99 250 -225 289 -243 28 -13 134 17 159 44 19 21 22 10 -97 353 -56
161 -79 241 -71 244 6 2 21 11 33 21 18 15 20 21 10 39 -15 29 -27 27 -146
-14z"/>
<path d="M10906 14636 c-35 -34 -33 -68 3 -99 77 -65 178 -27 157 59 -7 27
-44 49 -98 59 -31 6 -41 3 -62 -19z"/>
<path d="M10745 14475 c-3 -8 -7 -21 -9 -29 -3 -8 7 -19 25 -26 16 -7 29 -16
29 -21 0 -5 -54 -118 -120 -250 -101 -201 -124 -240 -138 -234 -46 20 -61 18
-72 -10 -6 -15 -9 -29 -8 -30 2 -2 63 -33 136 -69 106 -53 137 -65 148 -55 23
19 17 54 -11 67 -14 6 -25 16 -25 22 0 6 54 118 120 250 l120 240 31 -15 c35
-19 59 -7 59 29 0 17 -23 33 -125 84 -132 65 -153 71 -160 47z"/>
<path d="M5783 14406 c-51 -29 -95 -55 -99 -59 -4 -3 -3 -18 0 -33 6 -23 11
-26 35 -21 24 5 28 3 25 -11 -28 -135 -78 -322 -84 -315 -4 4 -33 56 -64 114
l-56 106 21 15 c17 11 21 20 15 41 -3 15 -13 27 -23 27 -24 0 -253 -130 -253
-144 0 -7 6 -21 14 -31 12 -17 17 -17 45 -5 19 7 36 9 41 4 10 -10 53 -86 174
-308 l87 -158 -31 -27 -32 -26 19 -24 20 -24 106 57 c58 31 116 65 129 75 21
18 21 19 5 45 -15 21 -21 24 -37 16 -31 -17 -37 -13 -74 54 -35 63 -35 64 -24
125 6 33 15 61 18 61 4 0 63 -39 131 -87 155 -108 164 -111 220 -90 59 23 108
54 116 73 3 8 1 26 -5 39 -9 20 -16 23 -45 18 -41 -6 -82 11 -254 104 -68 37
-123 73 -123 81 0 7 16 70 36 140 28 99 42 132 62 149 23 19 24 25 14 47 -6
14 -17 26 -24 25 -7 0 -55 -24 -105 -53z"/>
<path d="M11208 14235 c-10 -21 -8 -27 8 -39 20 -15 21 -13 -108 -498 -47
-181 -49 -174 46 -224 38 -19 60 -25 79 -20 29 7 143 91 374 274 130 104 143
112 163 100 18 -11 23 -10 36 6 8 11 14 26 14 33 0 11 -160 126 -194 139 -9 3
-22 -6 -32 -21 -17 -26 -17 -28 4 -44 22 -16 22 -16 -60 -97 -138 -136 -283
-257 -286 -241 -3 17 39 168 99 354 38 117 41 122 60 110 17 -10 23 -9 40 12
10 13 19 26 19 30 -1 10 -219 151 -235 151 -9 0 -21 -11 -27 -25z"/>
<path d="M4854 13820 c-109 -83 -203 -157 -209 -165 -7 -11 -4 -21 11 -36 21
-20 23 -20 48 -4 24 16 28 16 39 2 110 -140 317 -418 317 -426 0 -6 -9 -15
-20 -21 -11 -6 -20 -17 -20 -24 0 -20 37 -49 52 -40 31 19 356 269 386 297 17
17 32 38 32 48 0 18 -47 69 -64 69 -6 0 -33 -25 -60 -56 -50 -57 -161 -154
-176 -154 -9 0 -140 166 -140 178 0 4 43 39 95 77 52 39 96 75 99 82 5 13 -30
63 -45 63 -6 0 -55 -34 -109 -75 l-99 -75 -61 80 -60 79 53 40 c29 22 88 57
131 77 77 35 78 36 72 67 -7 37 -33 67 -56 67 -9 0 -107 -68 -216 -150z"/>
<path d="M8169 13819 c-796 -39 -1572 -294 -2258 -742 l-124 -81 24 -18 c304
-227 1826 -1324 1830 -1319 6 5 700 2133 703 2155 2 13 -8 13 -175 5z"/>
<path d="M8463 13812 c8 -29 700 -2157 703 -2160 1 -2 419 299 928 669 l926
672 -40 30 c-193 142 -635 377 -910 484 -462 181 -959 291 -1393 308 -72 3
-152 8 -176 10 -38 4 -43 3 -38 -13z"/>
<path d="M11982 13708 c-17 -17 -15 -32 8 -53 19 -17 18 -19 -52 -99 -169
-191 -293 -326 -302 -326 -5 0 -18 7 -28 17 -17 15 -19 15 -38 -2 -11 -10 -20
-23 -20 -30 0 -11 298 -284 364 -332 39 -30 70 -29 95 3 33 41 27 57 -32 86
-29 14 -88 54 -130 88 l-77 62 52 60 c29 33 64 74 78 91 l26 30 59 -54 c33
-30 77 -69 99 -87 l38 -33 24 22 c13 12 24 28 24 35 0 7 -21 33 -47 57 -27 24
-68 62 -92 84 l-45 40 64 72 c35 39 67 71 71 71 14 0 131 -125 161 -172 35
-54 53 -59 92 -23 26 24 32 49 18 71 -17 28 -369 334 -382 334 -9 0 -21 -5
-28 -12z"/>
<path d="M4290 13324 c-91 -91 -195 -188 -232 -216 -71 -55 -73 -62 -30 -110
29 -34 54 -22 132 62 l75 81 188 -182 c103 -99 187 -186 187 -193 0 -7 -9 -21
-20 -31 -26 -24 -25 -51 2 -66 19 -10 31 -2 135 103 116 117 127 139 81 154
-14 4 -28 -2 -46 -19 l-27 -26 -195 190 -195 189 45 40 c25 22 69 52 97 67 57
30 63 44 36 83 -20 30 -33 40 -53 40 -8 0 -89 -75 -180 -166z"/>
<path d="M8161 12342 c-150 -461 -273 -845 -274 -854 -1 -10 84 -78 240 -192
133 -96 251 -181 261 -187 17 -11 49 9 273 171 140 101 262 190 271 199 15 15
-1 73 -237 855 -140 461 -256 840 -258 842 -2 2 -126 -373 -276 -834z"/>
<path d="M12577 13152 c-22 -24 -21 -35 4 -58 l21 -19 -24 -20 c-14 -11 -109
-91 -213 -178 l-188 -157 -29 26 c-27 27 -28 27 -48 9 -11 -10 -20 -23 -20
-28 0 -10 88 -120 155 -194 29 -32 45 -43 57 -38 29 11 32 44 7 71 -12 13 -21
25 -18 27 2 1 36 31 75 65 40 34 76 62 82 62 17 0 52 -56 52 -84 0 -28 -31
-96 -80 -173 -17 -26 -30 -61 -30 -78 0 -38 65 -133 104 -155 24 -12 29 -12
47 7 17 17 19 24 10 41 -17 32 -13 58 24 158 19 51 35 109 35 129 0 40 1 40
38 21 80 -41 167 -23 229 47 55 63 53 135 -5 227 -29 47 -227 289 -246 302
-16 11 -21 10 -39 -10z m137 -263 c50 -59 46 -112 -10 -166 -51 -48 -91 -45
-150 9 -24 22 -43 45 -42 50 5 14 152 137 165 137 6 1 23 -13 37 -30z"/>
<path d="M5554 12816 c-501 -403 -917 -918 -1207 -1493 -114 -228 -255 -572
-240 -587 8 -8 2293 -8 2293 0 0 13 -703 2169 -709 2177 -4 4 -65 -40 -137
-97z"/>
<path d="M11117 12913 c-6 -11 -707 -2168 -707 -2176 0 -4 515 -7 1145 -7
1019 0 1145 2 1145 15 0 9 -20 68 -44 133 -274 736 -775 1433 -1382 1921 -162
131 -151 123 -157 114z"/>
<path d="M3644 12552 c-23 -15 -264 -388 -264 -408 0 -28 30 -54 71 -60 l34
-5 23 73 c23 72 89 198 104 198 11 0 63 -107 169 -343 106 -238 112 -247 144
-247 21 0 43 28 143 178 139 207 155 236 147 263 -8 24 -59 51 -87 47 -16 -2
-24 -16 -35 -58 -15 -59 -92 -209 -108 -212 -11 -2 -67 107 -194 375 -88 185
-114 221 -147 199z"/>
<path d="M6162 12418 c6 -16 467 -1432 518 -1591 l31 -97 317 2 316 3 109 333
c60 183 107 339 104 346 -4 11 -1367 1005 -1390 1015 -6 2 -8 -3 -5 -11z"/>
<path d="M9990 11901 c-642 -467 -725 -530 -722 -552 1 -13 46 -157 100 -319
l97 -295 331 -3 c258 -2 333 1 341 10 5 7 121 335 258 728 136 393 267 770
291 838 24 67 40 122 36 121 -4 0 -333 -238 -732 -528z"/>
<path d="M13058 12370 c-48 -14 -96 -50 -119 -87 -28 -45 -30 -128 -5 -219 9
-34 16 -84 16 -112 0 -44 -4 -54 -31 -76 -17 -14 -39 -26 -48 -26 -45 0 -124
128 -137 219 -10 77 -12 81 -47 81 -86 0 -99 -62 -39 -178 121 -235 247 -302
390 -207 79 52 91 124 53 303 -25 113 -20 142 30 167 42 22 73 12 104 -33 29
-42 65 -149 65 -193 0 -27 3 -29 35 -29 40 0 85 36 85 69 0 29 -84 191 -124
238 -63 72 -154 106 -228 83z"/>
<path d="M3175 11770 c-52 -105 -64 -135 -54 -146 19 -23 54 -17 67 11 6 14
16 25 21 25 6 0 118 -54 250 -121 217 -108 240 -122 231 -139 -17 -31 -12 -60
13 -69 12 -5 26 -7 30 -4 14 8 127 242 127 263 0 21 -51 42 -57 23 -2 -6 -10
-19 -18 -29 -13 -18 -25 -13 -260 104 -207 103 -246 126 -239 140 4 9 7 28 8
42 1 20 -4 26 -26 28 -26 3 -31 -4 -93 -128z"/>
<path d="M13710 11810 c-26 -26 -25 -55 3 -105 26 -47 64 -64 102 -47 50 23
50 97 -2 154 -22 24 -78 23 -103 -2z"/>
<path d="M13516 11777 c-18 -13 -19 -27 -2 -68 7 -16 -38 -40 -352 -183 l-142
-65 -15 30 c-17 32 -45 38 -65 14 -11 -13 -3 -38 48 -148 33 -73 66 -133 74
-135 7 -1 22 4 32 11 17 12 18 18 7 47 -6 18 -10 34 -9 35 13 9 467 217 483
221 15 3 24 -3 37 -26 14 -25 21 -28 40 -21 13 4 24 17 25 27 3 22 -117 267
-132 271 -6 2 -19 -3 -29 -10z"/>
<path d="M3052 11289 c-53 -27 -92 -73 -136 -164 -45 -92 -129 -332 -121 -345
3 -5 19 -10 35 -10 23 0 31 5 36 25 3 14 8 25 10 25 6 0 453 -160 490 -175 27
-11 30 -16 26 -47 -4 -32 -1 -36 25 -41 15 -3 29 -4 30 -3 15 15 114 336 119
387 12 123 -36 218 -145 289 -121 77 -280 103 -369 59z m213 -179 c90 -31 157
-71 183 -110 20 -29 23 -43 18 -80 -8 -58 -35 -94 -73 -98 -19 -2 -107 24
-229 68 -109 39 -199 72 -201 73 -6 7 19 77 40 108 48 72 129 85 262 39z"/>
<path d="M13704 11296 c-19 -14 -18 -17 14 -108 49 -135 48 -126 16 -139 -91
-34 -470 -149 -480 -145 -7 3 -15 18 -19 35 -5 24 -12 31 -30 31 -48 0 -48
-19 3 -176 39 -123 51 -150 68 -152 33 -5 47 21 35 62 l-9 36 246 80 c135 44
252 80 259 80 16 0 32 -62 41 -158 7 -77 7 -77 38 -80 39 -4 84 13 84 32 0 9
-29 107 -65 218 -62 191 -84 272 -99 361 -7 35 -9 37 -45 37 -20 0 -46 -6 -57
-14z"/>
<path d="M7721 10988 c-45 -139 -99 -305 -120 -368 l-38 -115 -386 -3 c-213
-1 -387 -5 -387 -8 0 -5 225 -700 237 -730 2 -6 -119 -101 -269 -210 -150
-109 -292 -212 -315 -229 l-42 -32 301 -219 c165 -120 306 -222 311 -226 8 -4
-29 -131 -107 -370 -65 -200 -121 -369 -123 -375 -4 -10 78 -13 391 -13 l395
0 91 -282 c50 -156 103 -319 117 -363 14 -44 27 -82 29 -84 1 -1 143 99 314
224 172 124 317 224 323 222 7 -3 131 -93 277 -200 146 -107 267 -194 270
-192 3 2 52 157 110 344 l105 341 388 0 c229 0 387 4 387 9 0 5 -51 160 -113
344 l-114 334 354 254 c194 139 353 256 353 259 0 3 -148 111 -329 240 l-328
235 17 50 c109 311 230 658 230 661 0 2 -180 4 -399 4 -372 0 -400 1 -405 18
-3 9 -50 167 -105 350 -56 182 -101 335 -101 338 0 13 -35 -11 -300 -203 -151
-110 -280 -202 -287 -206 -7 -4 -132 80 -305 206 -161 117 -305 221 -319 230
l-26 17 -82 -252z"/>
<path d="M4046 10567 c-193 -662 -234 -1355 -121 -2030 39 -232 129 -591 146
-585 5 2 421 302 924 668 822 596 914 666 898 678 -135 100 -1816 1318 -1823
1320 -4 2 -15 -21 -24 -51z"/>
<path d="M11820 9955 c-503 -365 -914 -667 -913 -671 1 -7 1812 -1324 1829
-1331 6 -2 14 6 17 19 3 13 26 104 52 203 196 763 187 1554 -27 2333 -17 61
-33 112 -37 112 -3 0 -418 -299 -921 -665z"/>
<path d="M4760 10486 c44 -43 1397 -1015 1407 -1011 6 2 127 88 268 191 164
119 254 191 251 199 -3 8 -50 153 -106 324 l-101 311 -867 0 c-745 0 -864 -2
-852 -14z"/>
<path d="M10520 10490 l-194 -5 -103 -315 c-80 -246 -100 -318 -90 -327 45
-44 541 -392 550 -386 17 10 1430 1024 1442 1035 9 8 -1271 7 -1605 -2z"/>
<path d="M13965 10449 c-4 -5 -4 -21 -1 -34 4 -17 1 -25 -11 -29 -15 -4 -357
-61 -494 -82 -34 -5 -37 -3 -47 25 -7 19 -18 31 -29 31 -45 -1 -45 -5 -3 -266
24 -142 48 -259 57 -273 13 -20 21 -22 51 -17 60 9 67 24 37 88 -24 53 -70
236 -61 245 8 8 219 43 225 37 3 -3 15 -60 26 -127 l21 -122 33 2 c18 0 37 5
42 10 5 5 1 59 -11 128 -11 66 -20 123 -20 126 0 7 189 33 196 26 11 -11 25
-147 22 -222 l-3 -80 46 -3 c77 -5 77 -2 40 231 -56 344 -49 317 -81 317 -16
0 -32 -5 -35 -11z"/>
<path d="M3314 10432 c-7 -4 -12 -45 -13 -107 -1 -55 -5 -118 -9 -140 -9 -49
13 -50 -304 11 l-238 46 6 39 c6 35 4 39 -21 45 -14 3 -30 3 -35 -2 -5 -5 -20
-69 -34 -143 -27 -141 -25 -161 16 -161 12 0 23 11 29 30 6 17 17 30 24 30 13
0 455 -85 503 -97 17 -4 22 -12 22 -39 0 -28 4 -35 26 -40 14 -4 29 -3 34 2
11 12 90 430 90 476 0 27 -6 40 -19 48 -23 12 -61 13 -77 2z"/>
<path d="M2615 9768 c-3 -7 -6 -78 -7 -158 l-3 -145 24 -3 c28 -4 41 12 41 50
0 26 1 27 48 23 26 -3 130 -9 232 -15 102 -6 204 -13 227 -16 40 -6 42 -8 45
-43 3 -33 6 -36 33 -36 27 0 30 4 36 40 4 22 8 92 10 155 l4 115 -30 0 c-27 0
-31 -4 -35 -35 l-5 -35 -65 3 c-122 5 -385 22 -437 28 -51 5 -52 6 -55 42 -3
32 -7 37 -31 40 -16 2 -29 -2 -32 -10z"/>
<path d="M13497 9643 c-29 -7 -48 -60 -54 -152 -10 -160 31 -297 104 -342 48
-30 132 -36 189 -14 59 23 94 76 135 209 35 114 60 146 113 146 77 0 97 -92
52 -235 l-24 -77 36 -15 c50 -21 83 -8 99 37 15 44 16 203 2 269 -22 105 -101
171 -205 171 -107 0 -157 -48 -203 -198 -34 -109 -56 -148 -93 -163 -72 -30
-114 27 -105 143 3 37 17 94 30 127 22 55 23 61 8 74 -19 17 -59 26 -84 20z"/>
<path d="M2592 9241 c-17 -11 -6 -235 12 -250 21 -17 56 -1 56 25 0 13 4 24 9
24 12 0 238 -65 274 -79 16 -6 25 -16 22 -21 -7 -11 -225 -123 -262 -134 -16
-5 -23 -2 -28 14 -5 17 -13 20 -38 18 l-32 -3 4 -80 c1 -44 6 -107 9 -140 7
-59 8 -60 37 -60 25 0 31 5 33 25 3 28 19 39 248 178 143 87 154 92 222 98
l72 7 0 -30 c0 -44 20 -66 53 -58 21 6 26 12 22 29 -2 11 -7 83 -11 158 -6
144 -12 162 -52 151 -18 -4 -22 -12 -22 -48 l0 -43 -74 -7 -75 -7 -208 93
c-177 81 -208 98 -213 119 -6 26 -35 37 -58 21z"/>
<path d="M10420 8939 c-146 -105 -273 -199 -282 -208 -16 -15 -11 -34 82 -322
l100 -306 572 -6 c753 -9 1238 -9 1237 1 0 8 -1415 1026 -1433 1030 -6 1 -130
-84 -276 -189z"/>
<path d="M5453 8607 c-381 -276 -692 -505 -693 -509 0 -5 388 -8 863 -8 l862
0 99 308 c55 169 100 311 100 316 1 8 -522 395 -534 395 -3 0 -316 -226 -697
-502z"/>
<path d="M13454 8938 c-9 -15 -35 -288 -28 -299 3 -5 18 -9 35 -9 23 0 29 4
29 23 1 53 -3 53 282 28 145 -13 266 -25 271 -28 4 -2 7 -19 7 -38 0 -24 5
-35 19 -40 43 -13 48 -1 61 151 14 155 11 168 -31 162 -19 -2 -25 -10 -27 -35
-4 -41 6 -40 -295 -13 -278 25 -271 24 -263 56 4 15 2 32 -5 40 -14 17 -45 18
-55 2z"/>
<path d="M14226 8798 c-34 -48 -10 -150 38 -162 31 -8 71 7 80 29 12 31 6 110
-10 133 -11 16 -25 22 -54 22 -29 0 -43 -6 -54 -22z"/>
<path d="M4108 7834 c-3 -3 16 -62 42 -132 287 -764 776 -1439 1411 -1949 64
-51 120 -93 125 -93 7 0 696 2096 712 2166 3 12 -173 14 -1141 14 -629 0
-1146 -2 -1149 -6z"/>
<path d="M6697 7833 c-5 -8 -466 -1422 -517 -1585 -16 -49 -23 -85 -16 -81 6
3 322 231 701 506 380 275 691 501 692 502 2 1 -46 150 -105 331 l-108 329
-321 3 c-177 1 -324 -1 -326 -5z"/>
<path d="M9466 7832 c-3 -5 -46 -134 -96 -288 -50 -153 -95 -291 -100 -306 -9
-27 0 -34 668 -523 372 -272 678 -492 680 -487 3 9 -530 1580 -542 1601 -9 13
-602 16 -610 3z"/>
<path d="M10412 7823 c27 -103 704 -2163 711 -2163 5 0 61 42 125 94 637 512
1124 1187 1413 1955 21 57 39 110 39 117 0 12 -185 14 -1146 14 -1087 0 -1146
-1 -1142 -17z"/>
<path d="M8145 7286 c-168 -122 -250 -188 -249 -199 3 -25 498 -1567 504
-1567 5 0 491 1557 493 1583 2 14 -472 368 -491 367 -4 -1 -119 -83 -257 -184z"/>
<path d="M6720 6253 c-503 -366 -916 -668 -918 -673 -4 -11 193 -140 349 -229
593 -341 1249 -540 1944 -591 189 -14 245 -13 245 3 0 17 -690 2140 -698 2148
-4 4 -419 -293 -922 -658z"/>
<path d="M9166 6912 c-9 -16 -696 -2135 -696 -2149 0 -14 17 -15 138 -9 504
26 1005 133 1461 313 147 58 469 213 598 288 126 74 343 215 343 224 -1 10
-1839 1340 -1844 1333z"/>
<path d="M7980 4237 c-124 -35 -190 -119 -190 -241 1 -75 29 -130 82 -157 35
-18 60 -23 133 -23 50 -1 105 2 124 7 l34 7 -7 -47 c-13 -99 -65 -143 -176
-151 -46 -3 -82 0 -113 11 -44 15 -45 15 -56 -9 -13 -30 -14 -64 -1 -84 12
-20 161 -26 244 -10 204 39 290 162 290 415 0 149 -33 223 -117 266 -51 27
-181 35 -247 16z m147 -121 c23 -27 43 -104 43 -166 l0 -40 -57 0 c-102 0
-146 41 -146 136 0 51 3 60 28 82 37 31 99 26 132 -12z"/>
<path d="M7331 4225 c-79 -18 -111 -38 -111 -70 0 -22 4 -24 52 -27 77 -4 78
-8 75 -283 l-2 -230 -60 -5 c-59 -5 -60 -5 -63 -38 l-3 -32 208 2 208 3 3 33
3 32 -65 0 -66 0 0 293 c0 336 0 338 -73 336 -23 0 -71 -7 -106 -14z"/>
<path d="M8670 4229 c-81 -15 -120 -29 -130 -49 -17 -32 -2 -50 42 -50 81 0
78 11 78 -270 l0 -250 -59 0 c-49 0 -61 -3 -66 -19 -3 -10 -3 -26 1 -35 6 -15
28 -16 213 -14 l206 3 0 30 c0 30 -1 30 -65 35 l-65 5 -3 299 c-1 201 -6 304
-13 313 -13 14 -69 16 -139 2z"/>
<path d="M9306 4224 c-83 -16 -118 -37 -114 -67 3 -19 11 -23 56 -27 31 -3 57
-12 62 -20 6 -8 10 -124 10 -257 l0 -243 -59 0 c-65 0 -76 -8 -67 -46 l6 -24
205 0 c190 0 204 1 210 19 12 38 -4 50 -68 53 l-62 3 -3 300 c-2 268 -4 301
-19 313 -21 15 -68 14 -157 -4z"/>
</g>
</svg>
